<?xml version="1.0" encoding="utf-8"?>
<!-- Generator: Adobe Illustrator 19.2.1, SVG Export Plug-In . SVG Version: 6.00 Build 0)  -->
<svg version="1.1" id="Layer_1" xmlns="http://www.w3.org/2000/svg" xmlns:xlink="http://www.w3.org/1999/xlink" x="0px" y="0px" width="300" height="66" 
	 viewBox="0 0 1091.6 241.4" style="enable-background:new 0 0 1091.6 241.4;" xml:space="preserve">
<style type="text/css">
	.st0{fill:#379CF4;}
	.st1{fill:#0D2131;}
	.st2{display:none;}
</style>
<g>
	<g>
		<path class="st0" d="M107.5,22.9h17c6,0,10.9-4.9,10.9-10.9l0,0c0-6-4.9-10.9-10.9-10.9h-17c-6,0-10.9,4.9-10.9,10.9l0,0
			C96.6,18,101.5,22.9,107.5,22.9z"/>
		<path class="st0" d="M83,59.3h41.5c6,0,10.9-4.9,10.9-10.9l0,0c0-6-4.9-10.9-10.9-10.9H83c-6,0-10.9,4.9-10.9,10.9l0,0
			C72,54.4,76.9,59.3,83,59.3z"/>
		<path class="st0" d="M67.4,95.7h57.1c6,0,10.9-4.9,10.9-10.9l0,0c0-6-4.9-10.9-10.9-10.9H67.4c-6,0-10.9,4.9-10.9,10.9l0,0
			C56.5,90.8,61.4,95.7,67.4,95.7z"/>
		<path class="st0" d="M107.5,219.5h17c6,0,10.9,4.9,10.9,10.9l0,0c0,6-4.9,10.9-10.9,10.9h-17c-6,0-10.9-4.9-10.9-10.9l0,0
			C96.6,224.4,101.5,219.5,107.5,219.5z"/>
		<path class="st0" d="M83,183.1h41.5c6,0,10.9,4.9,10.9,10.9v0c0,6-4.9,10.9-10.9,10.9L83,205c-6,0-10.9-4.9-10.9-10.9v0
			C72,188,76.9,183.1,83,183.1z"/>
		<path class="st0" d="M67.4,146.7h57.1c6,0,10.9,4.9,10.9,10.9v0c0,6-4.9,10.9-10.9,10.9H67.4c-6,0-10.9-4.9-10.9-10.9v0
			C56.5,151.6,61.4,146.7,67.4,146.7z"/>
		<path class="st0" d="M61.6,132.1h62.9c6,0,10.9-4.9,10.9-10.9l0,0c0-6-4.9-10.9-10.9-10.9H61.6c-6,0-10.9,4.9-10.9,10.9l0,0
			C50.6,127.2,55.5,132.1,61.6,132.1z"/>
		<g>
			<path class="st1" d="M57.2,207.4h1.5c5.6,0,10.2,4.6,10.2,10.2l0,0c0,5.6-4.6,10.2-10.2,10.2h-1.5c-5.6,0-10.2-4.6-10.2-10.2l0,0
				C47,212,51.6,207.4,57.2,207.4z"/>
			<path class="st1" d="M28.2,168.4h13.4c6,0,10.9,4.9,10.9,10.9l0,0c0,6-4.9,10.9-10.9,10.9H28.2c-6,0-10.9-4.9-10.9-10.9l0,0
				C17.2,173.3,22.1,168.4,28.2,168.4z"/>
		</g>
		<g>
			<path class="st1" d="M57.2,36.1h1.5c5.6,0,10.2-4.6,10.2-10.2v0c0-5.6-4.6-10.2-10.2-10.2h-1.5c-5.6,0-10.2,4.6-10.2,10.2v0
				C47,31.5,51.6,36.1,57.2,36.1z"/>
			<path class="st1" d="M28.2,75.1h11.7c6,0,10.9-4.9,10.9-10.9v0c0-6-4.9-10.9-10.9-10.9H28.2c-6,0-10.9,4.9-10.9,10.9v0
				C17.2,70.2,22.1,75.1,28.2,75.1z"/>
		</g>
		<path class="st1" d="M11.9,128.2h18.9c6,0,10.9,4.9,10.9,10.9v0c0,6-4.9,10.9-10.9,10.9H11.9c-6,0-10.9-4.9-10.9-10.9v0
			C1,133.1,5.9,128.2,11.9,128.2z"/>
		<path class="st1" d="M15.5,90.1h16.8c6,0,10.9,4.9,10.9,10.9v0c0,6-4.9,10.9-10.9,10.9H15.5c-6,0-10.9-4.9-10.9-10.9v0
			C4.5,95,9.4,90.1,15.5,90.1z"/>
		<path class="st1" d="M201.4,22.9h-42.9c-6,0-10.9-4.9-10.9-10.9l0,0c0-6,4.9-10.9,10.9-10.9h42.9c6,0,10.9,4.9,10.9,10.9l0,0
			C212.3,18,207.4,22.9,201.4,22.9z"/>
		<path class="st1" d="M261,95.7h-17.5c-6,0-10.9-4.9-10.9-10.9v0c0-6,4.9-10.9,10.9-10.9H261c6,0,10.9,4.9,10.9,10.9v0
			C271.9,90.8,267,95.7,261,95.7z"/>
		<g>
			<path class="st1" d="M248.6,95.7h-89.8c-6,0-10.9-4.9-10.9-10.9l0,0c0-6,4.9-10.9,10.9-10.9h89.8c6,0,10.9,4.9,10.9,10.9l0,0
				C259.6,90.8,254.7,95.7,248.6,95.7z"/>
			<path class="st1" d="M192.2,183.1h-33.4c-6,0-10.9,4.9-10.9,10.9v0c0,6,4.9,10.9,10.9,10.9h33.4c6,0,10.9-4.9,10.9-10.9v0
				C203.2,188,198.3,183.1,192.2,183.1z"/>
			<path class="st1" d="M207.8,146.7h-49c-6,0-10.9,4.9-10.9,10.9v0c0,6,4.9,10.9,10.9,10.9h49c6,0,10.9-4.9,10.9-10.9v0
				C218.7,151.6,213.8,146.7,207.8,146.7z"/>
			<g>
				<g>
					<g>
						<path class="st0" d="M201.4,219.5h-42.9c-6,0-10.9,4.9-10.9,10.9l0,0c0,6,4.9,10.9,10.9,10.9h42.9c6,0,10.9-4.9,10.9-10.9l0,0
							C212.3,224.4,207.4,219.5,201.4,219.5z"/>
					</g>
					<g>
						<path class="st0" d="M245,183.4h-24.5c-6,0-10.9,4.9-10.9,10.9c0,6,4.9,10.9,10.9,10.9H245c6,0,10.9-4.9,10.9-10.9
							C255.9,188.3,251,183.4,245,183.4z"/>
					</g>
					<g>
						<path class="st0" d="M261.3,147h-19.5c-6,0-10.9,4.9-10.9,10.9c0,6,4.9,10.9,10.9,10.9h19.5c6,0,10.9-4.9,10.9-10.9
							C272.2,151.9,267.3,147,261.3,147z"/>
					</g>
					<g>
						<path class="st0" d="M266,110.3h-3h-13.3h-90.9c-6,0-10.9,4.9-10.9,10.9c0,6,4.9,10.9,10.9,10.9h90.9h13.3h3
							c6,0,10.9-4.9,10.9-10.9C276.9,115.2,272,110.3,266,110.3z"/>
					</g>
				</g>
			</g>
		</g>
		<g>
			<path class="st1" d="M147.6,48.4L147.6,48.4c0,6,4.9,10.9,10.9,10.9h82.7c6,0,10.9-4.9,10.9-10.9l0,0c0-6-4.9-10.9-10.9-10.9
				h-82.7C152.5,37.4,147.6,42.3,147.6,48.4z"/>
			<path class="st1" d="M244.6,37.4h-6.9c-6,0-10.9,4.9-10.9,10.9l0,0c0,6,4.9,10.9,10.9,10.9h6.9c6,0,10.9-4.9,10.9-10.9l0,0
				C255.6,42.3,250.7,37.4,244.6,37.4z"/>
		</g>
	</g>
</g>
<g>
	<g>
		<path class="st1" d="M377.4,35.6c3.5,0,6.5,1.2,8.8,3.5c2.3,2.3,3.4,5.1,3.1,8.4v30.4h14.5c4.7,0,8.2,2.1,10.6,6.2
			c2.3,3.5,2.3,7.3,0,11.4c-2.3,4.1-5.9,6-10.6,5.7h-14.5v45.8c0,4.4,0.7,7.3,2.2,8.8c0.9,1.2,2.3,1.9,4.4,2.2
			c2.3,0.9,5.3,0.7,8.8-0.4c4.7-1.5,8.8-0.4,12.3,3.1c2.9,2.9,3.8,6.7,2.6,11.4c-1.2,4.4-4,7.2-8.4,8.4l-8.4,1.3
			c-12.9,0.9-22.6-2.6-29-10.6c-5.3-6.2-7.9-14.2-7.9-24.2v-45.8h-7c-4.7,0.3-8.1-1.6-10.1-5.7c-2.3-4.1-2.3-7.9,0-11.4
			c2.1-4.1,5.4-6.2,10.1-6.2h7V47.5c0-4.7,2.1-8.4,6.2-11C373.9,35.9,375.7,35.6,377.4,35.6z"/>
		<path class="st1" d="M432.4,169.4V47.9c0-4.7,2.1-8.4,6.2-11c1.8-0.6,3.5-0.9,5.3-0.9c3.5,0,6.3,1,8.4,3.1
			c2.3,2.3,3.5,5.3,3.5,8.8v33.4c6.2-2.9,12.3-4.4,18.5-4.4c14.4,0,25.4,5.1,33,15.4c6.5,7.9,9.5,16.7,9.2,26.4v50.6
			c0.3,4.7-1.6,8.2-5.7,10.6c-4.1,2.1-7.9,2.1-11.4,0c-4.1-2.3-6.2-5.9-6.2-10.6v-50.6c-1.2-10-4.7-15.8-10.6-17.6
			c-2.1-0.9-4.8-1.3-8.4-1.3c-7.3,0-12.2,2.3-14.5,7c-2.3,4.7-3.7,8.7-4,11.9v50.6c0,5.9-2.8,9.7-8.4,11.4c-4.7,1.2-8.8,0-12.3-3.5
			C433.3,175.2,432.4,172.6,432.4,169.4z"/>
		<path class="st1" d="M601,154.9c3.5-2.9,7.5-3.7,11.9-2.2c3.8,1.8,6,5,6.6,9.7c0.9,4.4-0.6,7.9-4.4,10.6c-4.1,3.5-9.2,6-15.4,7.5
			c-4.4,0.9-11.7,1.2-22,0.9c-7.3,0-14.5-2.5-21.6-7.5c-12.9-9.4-19.8-23.6-20.7-42.7c-0.3-1.5-0.3-3.1,0-4.8
			c0.9-19.9,7.8-34.2,20.7-42.7c7-5,15.1-7.5,24.2-7.5c6.7,0,12.8,1.5,18,4.4c14.1,8.8,21.1,23.5,21.1,44v4.4c0,1.5-0.3,2.9-0.9,4.4
			c-1.8,4.7-5.3,7-10.6,7h-48c2.1,10,7.9,15.7,17.6,17.2h4C591.9,157.5,598.3,156.6,601,154.9z M579,99.9h-1.3
			c-2.6,0-5.6,0.9-8.8,2.6c-4.7,3.2-7.6,8.1-8.8,14.5h36.1v-0.9c-1.2-7.3-4.1-12.2-8.8-14.5c-2.1-1.2-4.5-1.8-7.5-1.8H579z"/>
		<path class="st1" d="M674.2,76.5c10,0,18.5,3.1,25.5,9.2c7-6.2,15.4-9.2,25.1-9.2c12.3,0,22,4.4,29,13.2
			c5.6,6.7,8.2,14.4,7.9,22.9v56.8c0,4.4-1.9,7.8-5.7,10.1c-3.8,2.3-7.8,2.3-11.9,0c-3.8-2.3-5.7-5.7-5.7-10.1v-56.8
			c-0.9-6.3-3.2-10.3-7-11.9c-1.5-0.6-3.7-0.9-6.6-0.9c-5.6,0-9.2,1.5-11,4.4c-1.5,2.6-2.3,5.4-2.6,8.4V137c0,4.4-1.9,7.8-5.7,10.1
			c-3.8,2.3-7.8,2.3-11.9,0c-3.8-2.1-5.7-5.4-5.7-10.1v-24.4c-0.9-6.3-3.2-10.3-7-11.9c-1.5-0.6-3.7-0.9-6.6-0.9
			c-5.3,0-8.8,1.5-10.6,4.4c-1.8,3.1-2.8,5.9-3.1,8.4v56.8c0.3,4.4-1.6,7.8-5.7,10.1c-3.8,2.3-7.8,2.3-11.9,0
			c-3.8-2.3-5.7-5.7-5.7-10.1v-56.8c1.2-18.2,9.4-29.6,24.6-34.3C665.7,77.1,669.8,76.5,674.2,76.5z"/>
		<path class="st1" d="M842.5,154.9c3.5-2.9,7.5-3.7,11.9-2.2c3.8,1.8,6,5,6.6,9.7c0.9,4.4-0.6,7.9-4.4,10.6
			c-4.1,3.5-9.2,6-15.4,7.5c-4.4,0.9-11.7,1.2-22,0.9c-7.3,0-14.5-2.5-21.6-7.5c-12.9-9.4-19.8-23.6-20.7-42.7
			c-0.3-1.5-0.3-3.1,0-4.8c0.9-19.9,7.8-34.2,20.7-42.7c7-5,15.1-7.5,24.2-7.5c6.7,0,12.8,1.5,18,4.4c14.1,8.8,21.1,23.5,21.1,44
			v4.4c0,1.5-0.3,2.9-0.9,4.4c-1.8,4.7-5.3,7-10.6,7h-48c2.1,10,7.9,15.7,17.6,17.2h4C833.4,157.5,839.9,156.6,842.5,154.9z
			 M820.5,99.9h-1.3c-2.6,0-5.6,0.9-8.8,2.6c-4.7,3.2-7.6,8.1-8.8,14.5h36.1v-0.9c-1.2-7.3-4.1-12.2-8.8-14.5
			c-2.1-1.2-4.5-1.8-7.5-1.8H820.5z"/>
		<path class="st1" d="M890.9,34.3c3.2,0,6,1.2,8.4,3.5c2.3,2.3,3.5,5.1,3.5,8.4v64.7l37.4-35.6c3.8-3.5,8.2-4.3,13.2-2.2
			c1.2,0.6,2.3,1.5,3.5,2.6c3.5,3.8,4.3,8.1,2.2,12.8c-0.9,1.5-1.8,2.8-2.6,4l-27.3,25.5l33,44.9c3.2,4.4,3.4,8.8,0.4,13.2
			c-0.9,1.2-1.9,2.2-3.1,3.1c-4.1,3.2-8.5,3.4-13.2,0.4c-1.2-0.6-2.2-1.5-3.1-2.6L912,134.2l-9.2,8.8v26.8c0,4.4-1.9,7.8-5.7,10.1
			c-4.1,2.3-8.1,2.3-11.9,0c-3.8-2.3-5.7-5.7-5.7-10.1V46.2c0-5,2.2-8.5,6.6-10.6C887.5,34.7,889.2,34.3,890.9,34.3z"/>
		<path class="st1" d="M997.8,37.4c2.6,2.6,4,5.7,4,9.2v1.8c0,4.4-1.9,7.8-5.7,10.1c-4.1,2.3-8.1,2.3-11.9,0
			c-3.8-2.3-5.7-5.7-5.7-10.1v-1.8c0-1.5,0.3-2.8,0.9-4c1.5-4.7,4.7-7.3,9.7-7.9C992.3,34.1,995.2,35,997.8,37.4z M998.3,80.5
			c2.3,2.3,3.5,5.1,3.5,8.4v81c0,4.4-1.9,7.8-5.7,10.1c-4.1,2.3-8.1,2.3-11.9,0c-3.8-2.3-5.7-5.7-5.7-10.1v-81
			c0-1.8,0.4-3.4,1.3-4.8c1.8-4.7,5.1-7,10.1-7C993.4,77,996.2,78.2,998.3,80.5z"/>
		<path class="st1" d="M1044.5,35.6c3.5,0,6.5,1.2,8.8,3.5c2.3,2.3,3.4,5.1,3.1,8.4v30.4h14.5c4.7,0,8.2,2.1,10.6,6.2
			c2.3,3.5,2.3,7.3,0,11.4c-2.3,4.1-5.9,6-10.6,5.7h-14.5v45.8c0,4.4,0.7,7.3,2.2,8.8c0.9,1.2,2.3,1.9,4.4,2.2
			c2.3,0.9,5.3,0.7,8.8-0.4c4.7-1.5,8.8-0.4,12.3,3.1c2.9,2.9,3.8,6.7,2.6,11.4c-1.2,4.4-4,7.2-8.4,8.4l-8.4,1.3
			c-12.9,0.9-22.6-2.6-29-10.6c-5.3-6.2-7.9-14.2-7.9-24.2v-45.8h-7c-4.7,0.3-8.1-1.6-10.1-5.7c-2.3-4.1-2.3-7.9,0-11.4
			c2.1-4.1,5.4-6.2,10.1-6.2h7V47.5c0-4.7,2.1-8.4,6.2-11C1041,35.9,1042.7,35.6,1044.5,35.6z"/>
	</g>
</g>
<g class="st2">
	
		<text transform="matrix(1 0 0 1 494.888 880.6941)" style="display:inline;fill:#0D2131; font-family:'Ubuntu-Title'; font-size:220px;">themekit</text>
</g>
</svg>
