<svg xmlns="http://www.w3.org/2000/svg" xmlns:xlink="http://www.w3.org/1999/xlink" width="300" zoomAndPan="magnify" viewBox="0 0 224.87999 49.499998" height="66" preserveAspectRatio="xMidYMid meet" version="1.0"><defs><g/><clipPath id="d8844480e1"><path d="M 21 4.902344 L 39 4.902344 L 39 15 L 21 15 Z M 21 4.902344 " clip-rule="nonzero"/></clipPath><clipPath id="2d9b9ecf0d"><path d="M 13.316406 24.894531 L 46.800781 24.894531 L 46.800781 44.253906 L 13.316406 44.253906 Z M 13.316406 24.894531 " clip-rule="nonzero"/></clipPath><clipPath id="7409855214"><path d="M 5.992188 42.722656 L 54.207031 42.722656 L 54.207031 44.253906 L 5.992188 44.253906 Z M 5.992188 42.722656 " clip-rule="nonzero"/></clipPath><clipPath id="cfb8ba198c"><path d="M 17.371094 39.816406 L 42.875 39.816406 L 42.875 44.253906 L 17.371094 44.253906 Z M 17.371094 39.816406 " clip-rule="nonzero"/></clipPath></defs><path fill="#b3614b" d="M 22.78125 14.191406 C 22.523438 13.847656 22.46875 13.296875 22.421875 12.886719 C 22.28125 11.578125 22.296875 10.542969 22.417969 10.246094 C 22.492188 10.070312 22.867188 9.203125 23.75 8.34375 C 25.175781 6.949219 27.523438 6.222656 28.71875 5.96875 C 29.6875 5.769531 30.707031 5.664062 31.710938 5.734375 C 32.265625 5.773438 32.851562 5.847656 33.390625 5.984375 C 33.835938 6.097656 34.277344 6.3125 34.546875 6.691406 C 34.835938 7.097656 34.902344 7.609375 35.25 7.980469 C 35.625 8.390625 36.140625 8.632812 36.523438 9.027344 C 37.039062 9.558594 37.550781 10.394531 37.625 11.140625 C 37.695312 11.816406 37.402344 12.453125 37.0625 13.015625 C 37.003906 13.113281 36.296875 14.21875 36.203125 14.222656 C 36.199219 14.222656 36.199219 14.222656 36.195312 14.21875 C 36.054688 14.070312 35.730469 13.085938 34.582031 11.613281 C 34.253906 11.199219 34.101562 11.027344 33.976562 10.90625 C 33.894531 10.824219 33.636719 10.578125 33.261719 10.3125 C 33.136719 10.226562 32.875 10.03125 32.808594 10.152344 C 32.664062 10.390625 32.417969 10.726562 32.015625 10.980469 C 31.398438 11.367188 30.769531 11.34375 30.210938 11.328125 C 30.210938 11.328125 28.355469 11.285156 26.34375 11.425781 C 25.613281 11.476562 24.835938 11.515625 24.175781 11.871094 C 23.328125 12.328125 23.03125 13.28125 22.871094 14.171875 C 22.867188 14.191406 22.855469 14.210938 22.835938 14.21875 C 22.808594 14.226562 22.792969 14.207031 22.78125 14.191406 " fill-opacity="1" fill-rule="evenodd"/><path fill="#ebb39e" d="M 33.972656 27.308594 L 32.273438 28.839844 L 27.75 28.839844 L 26.207031 27.375 L 26.210938 27.371094 C 26.503906 26.777344 26.824219 25.21875 26.839844 24.675781 C 26.851562 24.15625 26.761719 23.808594 26.664062 23.4375 C 27.707031 24.203125 28.6875 24.433594 28.910156 24.484375 C 30.15625 24.761719 31.152344 24.546875 31.410156 24.484375 C 32.363281 24.257812 33.011719 23.824219 33.324219 23.605469 C 33.25 23.90625 33.1875 24.242188 33.195312 24.675781 C 33.222656 25.710938 33.605469 26.644531 33.972656 27.308594 " fill-opacity="1" fill-rule="evenodd"/><path fill="#f4baa6" d="M 26.664062 23.4375 C 26.570312 23.367188 26.472656 23.292969 26.375 23.214844 C 26.082031 22.972656 24.996094 22.027344 24.410156 20.386719 C 24.222656 19.851562 24.105469 19.21875 24.0625 18.890625 C 22.363281 18.394531 21.257812 15.855469 23.113281 14.21875 C 23.132812 14.210938 23.144531 14.191406 23.148438 14.171875 C 23.308594 13.28125 23.605469 12.328125 24.453125 11.871094 C 25.113281 11.515625 25.890625 11.476562 26.621094 11.425781 C 28.632812 11.285156 30.484375 11.328125 30.484375 11.328125 C 31.042969 11.34375 31.675781 11.367188 32.292969 10.980469 C 32.691406 10.726562 32.941406 10.390625 33.082031 10.152344 C 33.152344 10.035156 33.414062 10.226562 33.535156 10.3125 C 33.914062 10.578125 34.171875 10.824219 34.253906 10.90625 C 34.378906 11.027344 34.53125 11.199219 34.855469 11.613281 C 36.007812 13.085938 36.332031 14.070312 36.472656 14.21875 C 36.472656 14.222656 36.476562 14.222656 36.480469 14.222656 C 38.625 14.925781 37.898438 18.566406 36.238281 18.847656 C 36.054688 19.71875 35.632812 21.191406 34.609375 22.417969 C 34.035156 23.105469 33.480469 23.5 33.34375 23.59375 C 33.335938 23.597656 33.332031 23.601562 33.324219 23.605469 C 33.011719 23.824219 32.363281 24.257812 31.410156 24.484375 C 31.152344 24.546875 30.15625 24.761719 28.910156 24.484375 C 28.6875 24.433594 27.707031 24.203125 26.664062 23.4375 " fill-opacity="1" fill-rule="evenodd"/><path fill="#6a8899" d="M 42.074219 40.699219 L 42.074219 41.058594 C 42.074219 42.410156 40.992188 43.503906 39.652344 43.503906 L 20.546875 43.503906 C 19.207031 43.503906 18.125 42.410156 18.125 41.058594 L 18.125 40.699219 L 42.074219 40.699219 " fill-opacity="1" fill-rule="evenodd"/><path fill="#6a8899" d="M 40.429688 30.105469 L 40.429688 40.699219 L 19.769531 40.699219 L 19.769531 30.105469 C 19.769531 29.40625 20.332031 28.839844 21.023438 28.839844 L 39.175781 28.839844 C 39.867188 28.839844 40.429688 29.40625 40.429688 30.105469 " fill-opacity="1" fill-rule="evenodd"/><path fill="#f7e07f" d="M 18.125 41.058594 C 18.125 42.410156 19.207031 43.503906 20.546875 43.503906 L 14.167969 43.503906 C 14.164062 42.203125 14.175781 35.894531 15.367188 32.023438 C 15.660156 31.070312 15.996094 30.347656 16.433594 29.683594 C 16.675781 29.3125 17.742188 27.75 19.824219 26.679688 C 21.761719 25.6875 23.554688 25.644531 24.417969 25.679688 L 26.207031 27.375 L 27.75 28.839844 L 21.023438 28.839844 C 20.332031 28.839844 19.769531 29.40625 19.769531 30.105469 L 19.769531 40.699219 L 18.125 40.699219 L 18.125 41.058594 " fill-opacity="1" fill-rule="evenodd"/><path fill="#f7e07f" d="M 44.832031 32.023438 C 46.023438 35.894531 46.035156 42.203125 46.027344 43.503906 L 39.652344 43.503906 C 40.992188 43.503906 42.074219 42.410156 42.074219 41.058594 L 42.074219 40.699219 L 40.429688 40.699219 L 40.429688 30.105469 C 40.429688 29.40625 39.867188 28.839844 39.175781 28.839844 L 32.273438 28.839844 L 33.972656 27.308594 L 35.78125 25.679688 C 36.644531 25.644531 38.4375 25.6875 40.375 26.679688 C 42.457031 27.75 43.523438 29.3125 43.765625 29.683594 C 44.203125 30.347656 44.539062 31.070312 44.832031 32.023438 " fill-opacity="1" fill-rule="evenodd"/><g clip-path="url(#d8844480e1)"><path fill="#333333" d="M 36.480469 14.984375 C 36.269531 14.984375 36.070312 14.898438 35.925781 14.742188 C 35.808594 14.621094 35.738281 14.476562 35.621094 14.242188 C 35.417969 13.835938 35.042969 13.082031 34.265625 12.085938 C 33.945312 11.675781 33.816406 11.535156 33.726562 11.449219 C 33.667969 11.390625 33.527344 11.253906 33.320312 11.09375 C 33.132812 11.300781 32.921875 11.480469 32.691406 11.625 C 31.898438 12.125 31.09375 12.105469 30.507812 12.089844 L 30.46875 12.089844 C 30.449219 12.089844 28.621094 12.046875 26.671875 12.183594 L 26.582031 12.191406 C 25.949219 12.234375 25.296875 12.277344 24.808594 12.542969 C 24.339844 12.792969 24.066406 13.320312 23.890625 14.308594 C 23.839844 14.597656 23.636719 14.839844 23.363281 14.9375 C 23.03125 15.054688 22.671875 14.941406 22.453125 14.648438 C 22.078125 14.144531 22.003906 13.476562 21.953125 12.984375 L 21.949219 12.96875 C 21.875 12.28125 21.730469 10.601562 22 9.953125 C 22.144531 9.601562 22.585938 8.691406 23.5 7.796875 C 25.300781 6.039062 28.265625 5.347656 28.839844 5.226562 C 29.964844 4.992188 31.042969 4.90625 32.039062 4.976562 C 32.738281 5.027344 33.332031 5.113281 33.851562 5.246094 C 34.550781 5.425781 35.097656 5.773438 35.433594 6.25 C 35.609375 6.496094 35.71875 6.746094 35.8125 6.972656 C 35.898438 7.175781 35.972656 7.351562 36.074219 7.464844 C 36.21875 7.617188 36.414062 7.757812 36.617188 7.90625 C 36.847656 8.070312 37.105469 8.253906 37.339844 8.496094 C 37.910156 9.082031 38.554688 10.066406 38.652344 11.066406 C 38.746094 12 38.34375 12.808594 37.984375 13.410156 C 37.941406 13.476562 37.746094 13.789062 37.546875 14.082031 C 37.144531 14.675781 36.953125 14.9375 36.558594 14.980469 C 36.53125 14.980469 36.507812 14.984375 36.480469 14.984375 Z M 37.074219 13.765625 Z M 33.15625 9.355469 C 33.496094 9.355469 33.773438 9.550781 33.949219 9.675781 L 33.964844 9.6875 C 34.363281 9.96875 34.648438 10.230469 34.78125 10.363281 C 34.925781 10.503906 35.09375 10.691406 35.449219 11.144531 C 35.960938 11.800781 36.320312 12.367188 36.574219 12.8125 C 36.628906 12.730469 36.671875 12.660156 36.695312 12.621094 C 37.050781 12.03125 37.191406 11.597656 37.152344 11.21875 C 37.105469 10.730469 36.738281 10.050781 36.261719 9.558594 C 36.121094 9.417969 35.9375 9.285156 35.742188 9.144531 C 35.496094 8.96875 35.21875 8.765625 34.976562 8.503906 C 34.691406 8.195312 34.542969 7.847656 34.425781 7.566406 C 34.351562 7.394531 34.289062 7.246094 34.210938 7.132812 C 34.082031 6.957031 33.824219 6.808594 33.484375 6.722656 C 33.050781 6.613281 32.542969 6.535156 31.933594 6.492188 C 31.074219 6.433594 30.136719 6.507812 29.148438 6.714844 C 27.753906 7.007812 25.710938 7.75 24.546875 8.890625 C 23.828125 9.589844 23.488281 10.304688 23.394531 10.527344 C 23.363281 10.648438 23.332031 11.074219 23.367188 11.773438 C 23.566406 11.550781 23.804688 11.355469 24.097656 11.199219 C 24.871094 10.78125 25.726562 10.722656 26.476562 10.671875 L 26.570312 10.664062 C 28.589844 10.523438 30.425781 10.566406 30.503906 10.566406 L 30.546875 10.570312 C 31.046875 10.582031 31.480469 10.589844 31.890625 10.332031 C 32.105469 10.199219 32.289062 10.003906 32.4375 9.757812 C 32.558594 9.558594 32.746094 9.421875 32.972656 9.375 C 33.035156 9.359375 33.097656 9.355469 33.15625 9.355469 Z M 33.730469 10.542969 Z M 23.398438 10.519531 Z M 23.398438 10.519531 " fill-opacity="1" fill-rule="evenodd"/></g><path fill="#333333" d="M 30.171875 25.382812 C 29.746094 25.382812 29.265625 25.34375 28.746094 25.226562 C 28.28125 25.125 27.078125 24.777344 25.898438 23.800781 C 25.332031 23.332031 24.292969 22.300781 23.703125 20.640625 C 23.550781 20.222656 23.453125 19.769531 23.390625 19.445312 C 22.992188 19.253906 22.628906 18.976562 22.316406 18.625 C 21.902344 18.15625 21.609375 17.585938 21.476562 16.976562 C 21.207031 15.738281 21.621094 14.523438 22.617188 13.648438 C 22.929688 13.371094 23.40625 13.402344 23.679688 13.71875 C 23.953125 14.035156 23.921875 14.515625 23.609375 14.792969 C 22.867188 15.445312 22.839844 16.160156 22.949219 16.648438 C 23.101562 17.355469 23.648438 17.976562 24.273438 18.160156 C 24.558594 18.246094 24.769531 18.492188 24.808594 18.789062 C 24.855469 19.132812 24.964844 19.691406 25.121094 20.128906 C 25.605469 21.488281 26.492188 22.328125 26.851562 22.625 C 27.78125 23.394531 28.714844 23.660156 29.070312 23.742188 C 30.085938 23.96875 30.925781 23.816406 31.238281 23.742188 C 32.089844 23.539062 32.667969 23.140625 32.914062 22.96875 C 33.09375 22.84375 33.558594 22.496094 34.035156 21.925781 C 34.71875 21.105469 35.226562 19.988281 35.5 18.691406 C 35.566406 18.386719 35.808594 18.152344 36.113281 18.097656 C 36.601562 18.015625 37.21875 17.164062 37.289062 16.195312 C 37.335938 15.523438 37.113281 15.101562 36.628906 14.945312 C 36.230469 14.816406 36.011719 14.386719 36.140625 13.988281 C 36.269531 13.589844 36.691406 13.367188 37.089844 13.496094 C 37.710938 13.699219 38.191406 14.101562 38.484375 14.660156 C 38.730469 15.125 38.835938 15.695312 38.792969 16.304688 C 38.703125 17.554688 37.980469 18.949219 36.875 19.441406 C 36.53125 20.816406 35.960938 21.980469 35.183594 22.910156 C 34.613281 23.59375 34.054688 24.023438 33.769531 24.222656 C 33.480469 24.421875 32.710938 24.957031 31.582031 25.222656 C 31.28125 25.296875 30.785156 25.382812 30.171875 25.382812 " fill-opacity="1" fill-rule="evenodd"/><path fill="#333333" d="M 26.210938 27.832031 C 26.097656 27.832031 25.984375 27.804688 25.875 27.753906 C 25.503906 27.566406 25.347656 27.109375 25.535156 26.730469 C 25.730469 26.332031 26.0625 25.535156 26.085938 24.660156 C 26.09375 24.320312 26.050781 24.167969 25.976562 23.910156 C 25.957031 23.835938 25.933594 23.753906 25.910156 23.664062 C 25.808594 23.257812 26.050781 22.84375 26.453125 22.738281 C 26.855469 22.632812 27.269531 22.878906 27.371094 23.285156 C 27.390625 23.359375 27.40625 23.425781 27.429688 23.496094 C 27.515625 23.808594 27.605469 24.128906 27.589844 24.699219 C 27.5625 25.867188 27.136719 26.898438 26.882812 27.410156 C 26.753906 27.675781 26.484375 27.832031 26.210938 27.832031 " fill-opacity="1" fill-rule="evenodd"/><path fill="#333333" d="M 33.972656 28.066406 C 33.710938 28.066406 33.453125 27.929688 33.316406 27.679688 C 32.9375 26.992188 32.476562 25.921875 32.445312 24.699219 C 32.429688 24.128906 32.519531 23.808594 32.605469 23.496094 C 32.613281 23.464844 32.625 23.4375 32.632812 23.40625 C 32.742188 23 33.160156 22.765625 33.558594 22.875 C 33.960938 22.988281 34.195312 23.40625 34.082031 23.8125 C 34.074219 23.847656 34.066406 23.878906 34.058594 23.910156 C 33.984375 24.167969 33.941406 24.320312 33.949219 24.660156 C 33.972656 25.570312 34.332031 26.402344 34.628906 26.9375 C 34.835938 27.300781 34.703125 27.765625 34.34375 27.972656 C 34.226562 28.035156 34.097656 28.066406 33.972656 28.066406 " fill-opacity="1" fill-rule="evenodd"/><g clip-path="url(#2d9b9ecf0d)"><path fill="#333333" d="M 46.027344 44.265625 L 14.167969 44.265625 C 13.753906 44.265625 13.417969 43.925781 13.414062 43.507812 C 13.410156 41.214844 13.515625 35.484375 14.648438 31.796875 C 14.949219 30.8125 15.316406 30.007812 15.804688 29.265625 C 16.210938 28.644531 17.382812 27.082031 19.484375 26.003906 C 21.40625 25.015625 23.246094 24.867188 24.449219 24.917969 C 24.628906 24.925781 24.800781 25 24.933594 25.125 L 28.265625 28.285156 C 28.570312 28.570312 28.585938 29.050781 28.300781 29.359375 C 28.015625 29.664062 27.539062 29.679688 27.234375 29.390625 L 24.109375 26.433594 C 23.09375 26.421875 21.660156 26.59375 20.167969 27.359375 C 18.386719 28.269531 17.402344 29.582031 17.0625 30.105469 C 16.648438 30.730469 16.351562 31.390625 16.085938 32.246094 C 15.113281 35.417969 14.945312 40.429688 14.925781 42.742188 L 45.273438 42.742188 C 45.253906 40.429688 45.085938 35.417969 44.113281 32.246094 C 43.851562 31.390625 43.550781 30.730469 43.140625 30.105469 C 42.796875 29.582031 41.8125 28.269531 40.03125 27.359375 C 38.535156 26.589844 37.097656 26.421875 36.078125 26.433594 L 32.773438 29.40625 C 32.464844 29.683594 31.988281 29.65625 31.710938 29.34375 C 31.433594 29.03125 31.460938 28.550781 31.773438 28.269531 L 35.28125 25.109375 C 35.410156 24.992188 35.578125 24.925781 35.75 24.917969 C 36.953125 24.867188 38.792969 25.015625 40.714844 26 C 42.816406 27.078125 43.988281 28.644531 44.394531 29.265625 C 44.882812 30.007812 45.25 30.8125 45.550781 31.796875 C 46.683594 35.484375 46.789062 41.214844 46.785156 43.503906 C 46.78125 43.925781 46.445312 44.265625 46.027344 44.265625 " fill-opacity="1" fill-rule="evenodd"/></g><g clip-path="url(#7409855214)"><path fill="#333333" d="M 53.453125 44.265625 L 6.746094 44.265625 C 6.328125 44.265625 5.992188 43.925781 5.992188 43.503906 C 5.992188 43.085938 6.328125 42.742188 6.746094 42.742188 L 53.453125 42.742188 C 53.871094 42.742188 54.207031 43.085938 54.207031 43.503906 C 54.207031 43.925781 53.871094 44.265625 53.453125 44.265625 " fill-opacity="1" fill-rule="evenodd"/></g><g clip-path="url(#cfb8ba198c)"><path fill="#333333" d="M 39.652344 44.265625 L 20.546875 44.265625 C 18.792969 44.265625 17.371094 42.828125 17.371094 41.058594 L 17.371094 40.699219 C 17.371094 40.28125 17.707031 39.941406 18.125 39.941406 L 42.074219 39.941406 C 42.492188 39.941406 42.828125 40.28125 42.828125 40.699219 L 42.828125 41.058594 C 42.828125 42.828125 41.402344 44.265625 39.652344 44.265625 Z M 18.925781 41.460938 C 19.105469 42.195312 19.761719 42.742188 20.546875 42.742188 L 39.652344 42.742188 C 40.4375 42.742188 41.09375 42.195312 41.273438 41.460938 L 18.925781 41.460938 " fill-opacity="1" fill-rule="evenodd"/></g><path fill="#333333" d="M 40.429688 41.460938 L 19.769531 41.460938 C 19.351562 41.460938 19.015625 41.121094 19.015625 40.699219 L 19.015625 30.105469 C 19.015625 28.988281 19.917969 28.078125 21.023438 28.078125 L 39.175781 28.078125 C 40.28125 28.078125 41.183594 28.988281 41.183594 30.105469 L 41.183594 40.699219 C 41.183594 41.121094 40.847656 41.460938 40.429688 41.460938 Z M 20.523438 39.941406 L 39.675781 39.941406 L 39.675781 30.105469 C 39.675781 29.828125 39.453125 29.597656 39.175781 29.597656 L 21.023438 29.597656 C 20.746094 29.597656 20.523438 29.828125 20.523438 30.105469 L 20.523438 39.941406 " fill-opacity="1" fill-rule="evenodd"/><path fill="#333333" d="M 27.125 37.671875 C 26.964844 37.671875 26.804688 37.621094 26.667969 37.515625 L 23.890625 35.375 C 23.703125 35.230469 23.59375 35.007812 23.59375 34.769531 C 23.59375 34.53125 23.703125 34.308594 23.890625 34.164062 L 26.667969 32.023438 C 27 31.769531 27.472656 31.832031 27.722656 32.164062 C 27.976562 32.5 27.914062 32.976562 27.582031 33.230469 L 25.589844 34.769531 L 27.582031 36.308594 C 27.914062 36.5625 27.976562 37.039062 27.722656 37.375 C 27.574219 37.570312 27.351562 37.671875 27.125 37.671875 " fill-opacity="1" fill-rule="evenodd"/><path fill="#333333" d="M 33.074219 37.671875 C 32.847656 37.671875 32.621094 37.570312 32.476562 37.375 C 32.222656 37.039062 32.285156 36.5625 32.617188 36.308594 L 34.609375 34.769531 L 32.617188 33.230469 C 32.285156 32.976562 32.222656 32.5 32.476562 32.164062 C 32.726562 31.832031 33.199219 31.769531 33.53125 32.023438 L 36.308594 34.164062 C 36.496094 34.308594 36.605469 34.53125 36.605469 34.769531 C 36.605469 35.007812 36.496094 35.230469 36.308594 35.375 L 33.53125 37.515625 C 33.394531 37.621094 33.234375 37.671875 33.074219 37.671875 " fill-opacity="1" fill-rule="evenodd"/><path fill="#333333" d="M 29.191406 38.8125 C 29.125 38.8125 29.054688 38.800781 28.988281 38.78125 C 28.589844 38.667969 28.355469 38.25 28.464844 37.84375 L 30.28125 31.285156 C 30.394531 30.878906 30.808594 30.644531 31.210938 30.757812 C 31.609375 30.871094 31.84375 31.289062 31.734375 31.695312 L 29.917969 38.253906 C 29.824219 38.589844 29.523438 38.8125 29.191406 38.8125 " fill-opacity="1" fill-rule="evenodd"/><g fill="#000000" fill-opacity="1"><g transform="translate(59.591887, 31.77747)"><g><path d="M 10.699219 -2.09375 L 3.878906 -2.09375 L 3.878906 -14.515625 L 1.785156 -14.515625 L 1.785156 0 L 10.699219 0 Z M 10.699219 -2.09375 "/></g></g></g><g fill="#000000" fill-opacity="1"><g transform="translate(70.39327, 31.77747)"><g><path d="M 13.210938 0 L 13.210938 -11.21875 L 11.179688 -11.21875 L 11.199219 -9.726562 C 10.203125 -11.074219 8.523438 -11.40625 7.132812 -11.40625 C 3.339844 -11.40625 1.140625 -8.6875 1.140625 -5.660156 C 1.140625 -2.570312 3.257812 0.1875 7.175781 0.1875 C 8.566406 0.164062 10.367188 -0.289062 11.179688 -1.515625 L 11.179688 0 Z M 11.179688 -5.621094 C 11.179688 -2.925781 9 -1.617188 7.132812 -1.617188 C 4.644531 -1.617188 3.171875 -3.546875 3.171875 -5.660156 C 3.171875 -7.878906 4.667969 -9.621094 7.132812 -9.621094 C 9.042969 -9.621094 11.179688 -8.296875 11.179688 -5.621094 Z M 11.179688 -5.621094 "/></g></g></g><g fill="#000000" fill-opacity="1"><g transform="translate(84.947145, 31.77747)"><g><path d="M 5.414062 -7.902344 L 3.691406 -5.847656 L 3.691406 -14.515625 L 1.660156 -14.515625 L 1.660156 0 L 3.691406 0 L 3.691406 -3.421875 L 5.144531 -4.976562 L 8.917969 0 L 11.261719 0 L 11.261719 -0.1875 L 6.449219 -6.386719 L 10.96875 -11.21875 L 8.523438 -11.21875 Z M 5.414062 -7.902344 "/></g></g></g><g fill="#000000" fill-opacity="1"><g transform="translate(96.49488, 31.77747)"><g><path d="M 3.503906 -9.828125 L 3.503906 -14.515625 L 1.492188 -14.515625 L 1.492188 0 L 3.503906 0 L 3.503906 -6.097656 C 3.503906 -8.046875 4.667969 -9.582031 6.800781 -9.582031 C 9.25 -9.582031 9.808594 -8.128906 9.808594 -6.015625 L 9.808594 0 L 11.839844 0 L 11.839844 -6.035156 C 11.839844 -9.25 10.367188 -11.386719 6.945312 -11.386719 C 5.535156 -11.386719 4.355469 -11.03125 3.503906 -9.828125 Z M 3.503906 -9.828125 "/></g></g></g><g fill="#000000" fill-opacity="1"><g transform="translate(109.929228, 31.77747)"><g><path d="M 13.210938 0 L 13.210938 -11.21875 L 11.179688 -11.21875 L 11.199219 -9.726562 C 10.203125 -11.074219 8.523438 -11.40625 7.132812 -11.40625 C 3.339844 -11.40625 1.140625 -8.6875 1.140625 -5.660156 C 1.140625 -2.570312 3.257812 0.1875 7.175781 0.1875 C 8.566406 0.164062 10.367188 -0.289062 11.179688 -1.515625 L 11.179688 0 Z M 11.179688 -5.621094 C 11.179688 -2.925781 9 -1.617188 7.132812 -1.617188 C 4.644531 -1.617188 3.171875 -3.546875 3.171875 -5.660156 C 3.171875 -7.878906 4.667969 -9.621094 7.132812 -9.621094 C 9.042969 -9.621094 11.179688 -8.296875 11.179688 -5.621094 Z M 11.179688 -5.621094 "/></g></g></g><g fill="#000000" fill-opacity="1"><g transform="translate(124.483103, 31.77747)"><g><path d="M 3.585938 -9.828125 L 3.585938 -11.21875 L 1.554688 -11.21875 L 1.554688 0 L 3.585938 0 L 3.585938 -6.097656 C 3.585938 -8.046875 4.75 -9.582031 6.886719 -9.582031 C 9.332031 -9.582031 9.890625 -8.128906 9.890625 -6.015625 L 9.890625 0 L 11.902344 0 L 11.902344 -6.035156 C 11.902344 -9.25 10.453125 -11.386719 7.03125 -11.386719 C 5.621094 -11.386719 4.417969 -11.03125 3.585938 -9.828125 Z M 3.585938 -9.828125 "/></g></g></g><g fill="#000000" fill-opacity="1"><g transform="translate(137.917451, 31.77747)"><g/></g></g><g fill="#000000" fill-opacity="1"><g transform="translate(143.079727, 31.77747)"><g><path d="M 3.585938 -3.671875 L 9.476562 -3.671875 L 10.867188 0 L 13.105469 0 L 7.277344 -14.703125 L 5.746094 -14.703125 L -0.0820312 0 L 2.175781 0 Z M 8.710938 -5.640625 L 4.355469 -5.640625 L 6.53125 -11.363281 Z M 8.710938 -5.640625 "/></g></g></g><g fill="#000000" fill-opacity="1"><g transform="translate(156.223831, 31.77747)"><g><path d="M 12.589844 -14.515625 L 10.554688 -14.515625 L 10.554688 -9.769531 C 9.582031 -11.09375 8.171875 -11.40625 6.78125 -11.40625 C 2.984375 -11.40625 0.828125 -8.875 0.828125 -5.660156 C 0.828125 -2.324219 2.882812 0.1875 6.800781 0.1875 C 8.210938 0.164062 9.746094 -0.289062 10.554688 -1.515625 L 10.554688 0 L 12.589844 0 Z M 10.554688 -5.621094 C 10.554688 -2.925781 8.667969 -1.617188 6.761719 -1.617188 C 4.292969 -1.617188 2.863281 -3.316406 2.863281 -5.621094 C 2.863281 -7.632812 4.292969 -9.621094 6.78125 -9.621094 C 8.667969 -9.621094 10.554688 -8.296875 10.554688 -5.621094 Z M 10.554688 -5.621094 "/></g></g></g><g fill="#000000" fill-opacity="1"><g transform="translate(170.404531, 31.77747)"><g><path d="M 12.566406 -6.097656 C 12.339844 -9.621094 9.601562 -11.386719 6.824219 -11.386719 C 3.855469 -11.386719 0.996094 -9.457031 0.996094 -5.597656 C 0.996094 -1.742188 3.898438 0.207031 6.78125 0.207031 C 9.082031 0.207031 11.386719 -1.015625 12.234375 -3.464844 L 10.140625 -3.464844 C 9.476562 -2.199219 8.191406 -1.597656 6.800781 -1.597656 C 5.121094 -1.597656 3.027344 -2.925781 3.027344 -5.121094 L 12.527344 -5.121094 C 12.566406 -5.308594 12.589844 -5.515625 12.589844 -5.746094 C 12.589844 -5.867188 12.589844 -5.972656 12.566406 -6.097656 Z M 10.429688 -6.800781 L 3.109375 -6.800781 C 3.527344 -8.792969 5.183594 -9.601562 6.824219 -9.601562 C 8.441406 -9.601562 10.039062 -8.8125 10.429688 -6.800781 Z M 10.429688 -6.800781 "/></g></g></g><g fill="#000000" fill-opacity="1"><g transform="translate(184.087667, 31.77747)"><g><path d="M 3.648438 -8.148438 L 2.714844 -11.21875 L 0.582031 -11.21875 L 4.25 0.0820312 L 5.785156 0.0820312 L 7.175781 -4.3125 L 8.148438 -7.695312 L 9.125 -4.3125 L 10.492188 0.0820312 L 12.046875 0.0820312 L 15.71875 -11.21875 L 13.582031 -11.21875 L 12.628906 -8.148438 L 11.300781 -3.339844 L 9.042969 -11.21875 L 7.238281 -11.21875 L 4.996094 -3.339844 Z M 3.648438 -8.148438 "/></g></g></g><g fill="#000000" fill-opacity="1"><g transform="translate(200.341568, 31.77747)"><g><path d="M 13.210938 0 L 13.210938 -11.21875 L 11.179688 -11.21875 L 11.199219 -9.726562 C 10.203125 -11.074219 8.523438 -11.40625 7.132812 -11.40625 C 3.339844 -11.40625 1.140625 -8.6875 1.140625 -5.660156 C 1.140625 -2.570312 3.257812 0.1875 7.175781 0.1875 C 8.566406 0.164062 10.367188 -0.289062 11.179688 -1.515625 L 11.179688 0 Z M 11.179688 -5.621094 C 11.179688 -2.925781 9 -1.617188 7.132812 -1.617188 C 4.644531 -1.617188 3.171875 -3.546875 3.171875 -5.660156 C 3.171875 -7.878906 4.667969 -9.621094 7.132812 -9.621094 C 9.042969 -9.621094 11.179688 -8.296875 11.179688 -5.621094 Z M 11.179688 -5.621094 "/></g></g></g><g fill="#000000" fill-opacity="1"><g transform="translate(214.895444, 31.77747)"><g><path d="M 3.566406 -9.828125 L 3.566406 -11.199219 L 1.554688 -11.199219 L 1.554688 0 L 3.566406 0 L 3.566406 -6.078125 C 3.566406 -8.128906 5.144531 -9.644531 7.03125 -9.644531 C 7.363281 -9.644531 7.714844 -9.601562 8.066406 -9.496094 L 8.066406 -11.28125 C 7.609375 -11.386719 7.175781 -11.449219 6.738281 -11.449219 C 5.496094 -11.449219 4.375 -10.949219 3.566406 -9.828125 Z M 3.566406 -9.828125 "/></g></g></g></svg>