<svg xmlns="http://www.w3.org/2000/svg" xmlns:xlink="http://www.w3.org/1999/xlink" width="305" zoomAndPan="magnify" viewBox="0 0 228.75 30.000001" height="40" preserveAspectRatio="xMidYMid meet" version="1.0"><defs><g/><clipPath id="764c227fb8"><path d="M 3.570312 0 L 224.941406 0 L 224.941406 29.03125 L 3.570312 29.03125 Z M 3.570312 0 " clip-rule="nonzero"/></clipPath><clipPath id="08e34abb2d"><path d="M 3.570312 0 L 109.707031 0 L 109.707031 29.03125 L 3.570312 29.03125 Z M 3.570312 0 " clip-rule="nonzero"/></clipPath></defs><g clip-path="url(#764c227fb8)"><path fill="#ffffff" d="M 3.570312 0 L 225.179688 0 L 225.179688 29.0625 L 3.570312 29.0625 Z M 3.570312 0 " fill-opacity="1" fill-rule="nonzero"/><path fill="#ffffff" d="M 3.570312 0 L 225.179688 0 L 225.179688 29.0625 L 3.570312 29.0625 Z M 3.570312 0 " fill-opacity="1" fill-rule="nonzero"/></g><g clip-path="url(#08e34abb2d)"><path fill="#e45735" d="M 3.570312 -3.488281 L 109.707031 -3.488281 L 109.707031 32.550781 L 3.570312 32.550781 Z M 3.570312 -3.488281 " fill-opacity="1" fill-rule="nonzero"/></g><g fill="#ffffff" fill-opacity="1"><g transform="translate(5.012172, 24.096934)"><g><path d="M 5.75 -17.5625 L 5.75 -2.90625 L 13.640625 -2.90625 L 13.640625 0 L 2.28125 0 L 2.28125 -17.5625 Z M 5.75 -17.5625 "/></g></g></g><g fill="#ffffff" fill-opacity="1"><g transform="translate(19.225297, 24.096934)"><g><path d="M 16.84375 0 L 13.203125 0 L 11.875 -4.046875 L 5.15625 -4.046875 L 3.828125 0 L 0.265625 0 L 6.328125 -17.5625 L 10.78125 -17.5625 Z M 8.34375 -13.890625 L 6.09375 -6.96875 L 10.921875 -6.96875 L 8.640625 -13.890625 Z M 8.34375 -13.890625 "/></g></g></g><g fill="#ffffff" fill-opacity="1"><g transform="translate(36.331465, 24.096934)"><g><path d="M 2.28125 0 L 2.28125 -17.5625 L 5.75 -17.5625 L 5.75 -10.390625 L 6.140625 -10.390625 L 12 -17.5625 L 15.546875 -17.5625 L 15.546875 -17.25 L 9.09375 -9.265625 L 16.21875 -0.296875 L 16.21875 0 L 12.296875 0 L 6.140625 -7.578125 L 5.75 -7.578125 L 5.75 0 Z M 2.28125 0 "/></g></g></g><g fill="#ffffff" fill-opacity="1"><g transform="translate(52.549313, 24.096934)"><g><path d="M 13.625 -10.953125 L 13.625 -17.5625 L 17.078125 -17.5625 L 17.078125 0 L 13.625 0 L 13.625 -8 L 5.75 -8 L 5.75 0 L 2.28125 0 L 2.28125 -17.5625 L 5.75 -17.5625 L 5.75 -10.953125 Z M 13.625 -10.953125 "/></g></g></g><g fill="#ffffff" fill-opacity="1"><g transform="translate(71.912295, 24.096934)"><g><path d="M 16.84375 0 L 13.203125 0 L 11.875 -4.046875 L 5.15625 -4.046875 L 3.828125 0 L 0.265625 0 L 6.328125 -17.5625 L 10.78125 -17.5625 Z M 8.34375 -13.890625 L 6.09375 -6.96875 L 10.921875 -6.96875 L 8.640625 -13.890625 Z M 8.34375 -13.890625 "/></g></g></g><g fill="#ffffff" fill-opacity="1"><g transform="translate(89.018464, 24.096934)"><g><path d="M 5.640625 0 L 2.28125 0 L 2.28125 -17.5625 L 6.25 -17.5625 L 13.3125 -6.25 L 13.625 -6.296875 L 13.625 -17.5625 L 16.953125 -17.5625 L 16.953125 0 L 13.40625 0 L 5.9375 -12.078125 L 5.640625 -12.03125 Z M 5.640625 0 "/></g></g></g><g fill="#000000" fill-opacity="1"><g transform="translate(115.815794, 23.696843)"><g><path d="M 16.859375 0 L 13.203125 0 L 11.890625 -4.046875 L 5.15625 -4.046875 L 3.828125 0 L 0.265625 0 L 6.328125 -17.5625 L 10.796875 -17.5625 Z M 8.34375 -13.90625 L 6.09375 -6.96875 L 10.921875 -6.96875 L 8.65625 -13.90625 Z M 8.34375 -13.90625 "/></g></g></g><g fill="#000000" fill-opacity="1"><g transform="translate(132.934035, 23.696843)"><g><path d="M 8.609375 -17.5625 C 11.453125 -17.5625 13.625 -16.820312 15.125 -15.34375 C 16.632812 -13.875 17.390625 -11.6875 17.390625 -8.78125 C 17.390625 -5.882812 16.632812 -3.695312 15.125 -2.21875 C 13.625 -0.738281 11.453125 0 8.609375 0 L 2.28125 0 L 2.28125 -17.5625 Z M 8.40625 -2.921875 C 10.207031 -2.921875 11.554688 -3.382812 12.453125 -4.3125 C 13.359375 -5.238281 13.8125 -6.726562 13.8125 -8.78125 C 13.8125 -10.84375 13.359375 -12.332031 12.453125 -13.25 C 11.554688 -14.175781 10.207031 -14.640625 8.40625 -14.640625 L 5.75 -14.640625 L 5.75 -2.921875 Z M 8.40625 -2.921875 "/></g></g></g><g fill="#000000" fill-opacity="1"><g transform="translate(151.710043, 23.696843)"><g><path d="M 5.75 -7.71875 L 5.75 -2.90625 L 14.140625 -2.90625 L 14.140625 0 L 2.28125 0 L 2.28125 -17.5625 L 13.953125 -17.5625 L 13.953125 -14.65625 L 5.75 -14.65625 L 5.75 -10.546875 L 12.921875 -10.546875 L 12.921875 -7.71875 Z M 5.75 -7.71875 "/></g></g></g><g fill="#000000" fill-opacity="1"><g transform="translate(166.810135, 23.696843)"><g><path d="M 8.390625 0 L 4.5 0 L 0.484375 -17.5625 L 3.9375 -17.5625 L 6.59375 -5.21875 L 6.890625 -5.21875 L 10.046875 -17.5625 L 13.015625 -17.5625 L 16.21875 -5.21875 L 16.515625 -5.21875 L 19.1875 -17.5625 L 22.53125 -17.5625 L 18.515625 0 L 14.625 0 L 11.546875 -11.328125 L 11.296875 -11.328125 Z M 8.390625 0 "/></g></g></g><g fill="#000000" fill-opacity="1"><g transform="translate(189.80263, 23.696843)"><g><path d="M 16.859375 0 L 13.203125 0 L 11.890625 -4.046875 L 5.15625 -4.046875 L 3.828125 0 L 0.265625 0 L 6.328125 -17.5625 L 10.796875 -17.5625 Z M 8.34375 -13.90625 L 6.09375 -6.96875 L 10.921875 -6.96875 L 8.65625 -13.90625 Z M 8.34375 -13.90625 "/></g></g></g><g fill="#000000" fill-opacity="1"><g transform="translate(206.920872, 23.696843)"><g><path d="M 2.28125 0 L 2.28125 -17.5625 L 9.34375 -17.5625 C 11.15625 -17.5625 12.523438 -17.144531 13.453125 -16.3125 C 14.378906 -15.476562 14.84375 -14.320312 14.84375 -12.84375 C 14.84375 -11.78125 14.570312 -10.90625 14.03125 -10.21875 C 13.488281 -9.539062 12.679688 -9.019531 11.609375 -8.65625 L 11.609375 -8.40625 C 12.160156 -8.164062 12.601562 -7.8125 12.9375 -7.34375 C 13.28125 -6.875 13.609375 -6.171875 13.921875 -5.234375 L 15.671875 0 L 12.09375 0 L 10.375 -5.25 C 10.207031 -5.78125 10.007812 -6.191406 9.78125 -6.484375 C 9.5625 -6.773438 9.28125 -6.984375 8.9375 -7.109375 C 8.601562 -7.242188 8.164062 -7.3125 7.625 -7.3125 L 5.75 -7.3125 L 5.75 0 Z M 8.921875 -10.0625 C 10.597656 -10.0625 11.4375 -10.847656 11.4375 -12.421875 C 11.4375 -14.015625 10.597656 -14.8125 8.921875 -14.8125 L 5.75 -14.8125 L 5.75 -10.0625 Z M 8.921875 -10.0625 "/></g></g></g></svg>